<?xml version="1.0" encoding="UTF-8"?><svg id="Layer_2" xmlns="http://www.w3.org/2000/svg" viewBox="0 0 904.96 246.48"><defs><style>.cls-1,.cls-2,.cls-3,.cls-4,.cls-5,.cls-6,.cls-7,.cls-8{stroke:#000;}.cls-1,.cls-2,.cls-4,.cls-5,.cls-6{stroke-miterlimit:10;}.cls-1,.cls-3,.cls-5,.cls-6,.cls-7,.cls-8{stroke-width:3px;}.cls-1,.cls-4,.cls-5,.cls-7,.cls-8{stroke-linecap:round;}.cls-1,.cls-4,.cls-8{fill:none;}.cls-9,.cls-3,.cls-5,.cls-6,.cls-7{fill:#fff;}.cls-3,.cls-7,.cls-8{stroke-linejoin:round;}.cls-4{stroke-width:4px;}</style></defs><g id="Layer_10"><path class="cls-9" d="m26,141.4c-7.87-4.2-14.17-10.3-18.9-18.3-4.73-8-7.1-17.33-7.1-28s2.37-19.9,7.1-27.7c4.73-7.8,11.03-13.7,18.9-17.7,7.87-4,16.2-6,25-6s17.33,2.03,25.2,6.1c7.87,4.07,14.23,10,19.1,17.8,4.87,7.8,7.3,16.97,7.3,27.5s-2.43,20-7.3,28c-4.87,8-11.23,14.1-19.1,18.3-7.87,4.2-16.27,6.3-25.2,6.3s-17.13-2.1-25-6.3Zm36.7-6.9c3-4.53,5.13-10.2,6.4-17,1.27-6.8,1.9-14.27,1.9-22.4s-.63-15.47-1.9-22c-1.27-6.53-3.4-12-6.4-16.4s-6.9-6.6-11.7-6.6-8.63,2.2-11.5,6.6c-2.87,4.4-4.9,9.83-6.1,16.3-1.2,6.47-1.8,13.83-1.8,22.1,0,13.33,1.47,24.37,4.4,33.1,2.93,8.73,7.93,13.1,15,13.1,4.8,0,8.7-2.27,11.7-6.8Z"/><path class="cls-9" d="m102.04,142.41c2-1,3.67-2.7,5-5.1,1.33-2.4,2-5.73,2-10V25.11c0-4-.63-7.1-1.9-9.3-1.27-2.2-2.87-3.67-4.8-4.4-1.25-.47-2.55-.79-3.87-1-.66-.11-1.32-.19-1.99-.25-.6-.06-1.55.1-1.99-.43-.34-.41-.33-1.24-.14-1.71.22-.52.69-.89,1.24-.99,0,0,40.51-7,40.51-7,1.01-.17,1.93.6,1.93,1.62v125.64c0,4.27.67,7.6,2,10,1.33,2.4,3.03,4.1,5.1,5.1,1.74.84,3.73,1.52,5.99,2.03.76.17,1.31.83,1.31,1.62,0,.91-.74,1.65-1.65,1.65h-54.5c-.91,0-1.65-.74-1.65-1.65,0-.77.53-1.44,1.28-1.6,2.38-.51,4.42-1.2,6.12-2.05Z"/><path class="cls-9" d="m210.04,50.01c6.01,3.07,11.73,7.7,17.15,13.88.59.67.52,1.7-.13,2.3l-13.38,12.29c-1.03.95-2.68.26-2.76-1.14-.41-7.48-1.77-13.36-4.08-17.64-2.67-4.93-6.73-7.4-12.2-7.4-5.73,0-10.27,3-13.6,9-3.33,6-5,15.2-5,27.6,0,14.67,1.6,26.13,4.8,34.4,3.2,8.27,8.33,12.4,15.4,12.4,3.6,0,6.87-1.03,9.8-3.1,2.57-1.81,4.84-4.21,6.79-7.21.47-.72,1.43-.94,2.18-.51l.12.07c.74.42,1.05,1.34.68,2.11-2.93,6.18-7.15,11.3-12.68,15.33-5.93,4.33-12.77,6.5-20.5,6.5-6.93,0-13.23-1.87-18.9-5.6-5.67-3.73-10.2-9.4-13.6-17-3.4-7.6-5.1-16.93-5.1-28s2-21,6-29,9.4-14.03,16.2-18.1c6.8-4.07,14.33-6.1,22.6-6.1,7.07,0,13.8,1.63,20.2,4.9Zm5,93.1c-1.33-1.87-2.33-3.93-3-6.2-.67-2.27-1-4.47-1-6.6V25.11c0-4.13-.63-7.3-1.9-9.5-1.27-2.2-2.87-3.63-4.8-4.3-1.19-.41-2.43-.67-3.67-.86-.73-.11-1.46-.19-2.2-.25-.65-.05-1.52.09-2.02-.44-.41-.44-.52-1.18-.35-1.75.18-.6.69-1.06,1.31-1.17,0,0,41.11-6.82,41.11-6.82,1-.17,1.92.61,1.92,1.63v125.66c0,4.27.67,7.6,2,10,1.33,2.4,3,4.1,5,5.1,1.7.85,3.74,1.53,6.12,2.05.75.16,1.28.84,1.28,1.6,0,.91-.74,1.65-1.65,1.65h-33.66c-.44,0-.88-.18-1.19-.5-1.37-1.42-2.47-2.78-3.31-4.1Z"/><path class="cls-9" d="m271.84,145.71c-6.01-1.25-12.54-3.21-19.6-5.87-.83-.31-1.39-1.13-1.38-2.02l.35-25.62c.02-1.16.96-2.09,2.12-2.09h0c.8,0,1.54.46,1.9,1.18,3.67,7.3,7.31,13.04,10.91,17.22,3.8,4.4,7.57,7.57,11.3,9.5,3.73,1.93,7.67,2.9,11.8,2.9,4.8,0,8.5-1.13,11.1-3.4,2.6-2.27,3.9-5.4,3.9-9.4,0-4.27-1.53-7.67-4.6-10.2-3.07-2.53-7.87-5.2-14.4-8-2.13-.8-3.8-1.47-5-2-1.19-.53-2.77-1.19-4.74-1.98-.04-.02-.08-.03-.11-.05l-3.34-1.57c-5.47-2.67-9.83-5.4-13.1-8.2-3.27-2.8-5.77-5.93-7.5-9.4-1.73-3.47-2.6-7.33-2.6-11.6,0-6.13,1.57-11.57,4.7-16.3,3.13-4.73,7.63-8.43,13.5-11.1,5.87-2.67,12.93-4,21.2-4,4.8,0,10.03.57,15.7,1.7,5.25,1.05,10.7,2.7,16.35,4.95.81.32,1.34,1.12,1.33,1.99l-.17,23.65c0,1.16-.95,2.1-2.12,2.1h-.09c-.85,0-1.62-.52-1.95-1.31-4.12-9.7-8.57-16.46-13.36-20.29s-10.3-6-15.9-6c-5.2,0-9.3,1.17-12.3,3.5-3,2.33-4.5,5.37-4.5,9.1,0,2.53.8,4.7,2.4,6.5,1.6,1.8,3.73,3.4,6.4,4.8,2.67,1.4,6.67,3.23,12,5.5,2,.8,4,1.67,6,2.6,1.97.92,4.07,1.97,6.3,3.15.06.03.13.06.19.09l.9.36c4.27,1.87,7.97,3.97,11.1,6.3,3.13,2.33,5.7,5.37,7.7,9.1,2,3.73,3,8.27,3,13.6,0,10.13-3.53,18.1-10.6,23.9-7.07,5.8-16.33,8.7-27.8,8.7-4.93,0-10.6-.67-17-2Z"/><path class="cls-9" d="m356.64,141.81c-7.33-3.93-13.27-9.83-17.8-17.7-4.53-7.87-6.8-17.4-6.8-28.6,0-10.4,2.2-19.53,6.6-27.4,4.4-7.87,10.43-13.9,18.1-18.1,7.67-4.2,16.43-6.3,26.3-6.3,5.87,0,11.83.77,17.9,2.3,5.73,1.45,11.01,3.35,15.85,5.69.52.25.85.78.85,1.36l.18,26.33c0,.84-.67,1.52-1.51,1.52h-.85c-.62,0-1.17-.39-1.4-.96-4.02-10.03-8.26-17.25-12.72-21.64-4.6-4.53-9.63-6.8-15.1-6.8-7.87,0-13.77,3.63-17.7,10.9-3.93,7.27-5.9,16.5-5.9,27.7.13,8.13,1.4,15.43,3.8,21.9,2.4,6.47,5.8,11.5,10.2,15.1,4.4,3.6,9.67,5.4,15.8,5.4,5.6,0,10.7-1.47,15.3-4.4,4.33-2.76,8.1-6.24,11.31-10.42.36-.47.96-.7,1.54-.56h0c.9.21,1.4,1.16,1.07,2.03-1.64,4.36-4.15,8.61-7.52,12.75-3.8,4.67-8.63,8.47-14.5,11.4-5.87,2.93-12.47,4.4-19.8,4.4-8.13,0-15.87-1.97-23.2-5.9Z"/><path class="cls-9" d="m420.33,142.41c2-1,3.67-2.7,5-5.1,1.33-2.4,2-5.73,2-10V25.11c0-4-.63-7.1-1.9-9.3-1.27-2.2-2.83-3.67-4.7-4.4-1.34-.53-2.78-.82-4.21-.97-.49-.05-.98-.09-1.47-.11-.26-.01-.51-.02-.77-.02-.39,0-.79-.16-1.08-.42-.37-.34-.4-.8-.46-1.27-.11-.84.46-1.62,1.3-1.77L454.49.02c.96-.16,1.84.58,1.84,1.56v125.73c0,4.27.6,7.6,1.8,10s2.7,4.1,4.5,5.1c1.5.83,3.26,1.51,5.28,2.02.71.18,1.22.8,1.22,1.54v.16c0,.87-.71,1.58-1.58,1.58h-52.84c-.87,0-1.58-.71-1.58-1.58v-.14c0-.75.53-1.38,1.26-1.55,2.27-.51,4.25-1.19,5.94-2.04Zm64.1,0c1.67-1,3.03-2.7,4.1-5.1,1.07-2.4,1.6-5.73,1.6-10v-45.2c0-6.13-1.5-10.67-4.5-13.6-3-2.93-6.77-4.47-11.3-4.6-3.47-.13-6.93.6-10.4,2.2-2.47,1.14-4.81,2.65-7.01,4.54-1.02.87-2.59.14-2.59-1.2h0c0-.22.04-.44.13-.65,2.8-6.53,7.06-11.99,12.77-16.39,5.8-4.47,12.63-6.7,20.5-6.7,5.73,0,10.97,1.23,15.7,3.7,4.73,2.47,8.53,6.17,11.4,11.1,2.87,4.93,4.3,10.8,4.3,17.6v49.2c0,4.27.67,7.6,2,10,1.33,2.4,2.97,4.1,4.9,5.1,1.65.85,3.61,1.54,5.89,2.05.71.16,1.21.81,1.21,1.54v.14c0,.87-.71,1.58-1.58,1.58h-51.44c-.87,0-1.58-.71-1.58-1.58v-.2c0-.69.45-1.32,1.12-1.51,1.8-.51,3.39-1.18,4.78-2.01Z"/><path class="cls-9" d="m854.56,142.4c2-1,3.67-2.7,5-5.1,1.33-2.4,2-5.73,2-10V25.1c0-4-.63-7.1-1.9-9.3-1.27-2.2-2.87-3.67-4.8-4.4-1.38-.53-2.84-.85-4.3-1.06-.51-.07-1.02-.13-1.54-.17-.42-.04-.85-.02-1.27-.08-.74-.1-1.04-.84-.98-1.51.04-.53.32-1.04.77-1.33.18-.11.38-.19.58-.22,0,0,40.51-7,40.51-7,1.01-.17,1.93.6,1.93,1.62v125.64c0,4.27.67,7.6,2,10,1.33,2.4,3.03,4.1,5.1,5.1,1.74.84,3.73,1.52,5.99,2.03.76.17,1.31.83,1.31,1.62,0,.91-.74,1.65-1.65,1.65h-54.5c-.91,0-1.65-.74-1.65-1.65,0-.77.53-1.44,1.28-1.6,2.38-.51,4.42-1.2,6.12-2.05Z"/><g id="b"><g id="c"><path class="cls-9" d="m620.78,175.1c-1.48,0-2.98-.07-4.45-.2-15.32-1.42-28.82-4.78-40.12-9.98-13.21-6.08-23.95-14.9-31.92-26.23-10.48-14.9-9.03-24.65-8.04-27.9-3.16-3.25-13.99-15.7-8.37-28.85,4.53-10.57,15.14-12.15,21.07-12.15,1.45,0,2.65.09,3.49.18,1.74-2.79,7.6-9.51,25.45-14.27-.41-.64-.87-1.43-1.38-2.4-1.11-2.1-2.16-4.45-2.37-5.09-1.4-4.23-.49-6.78.51-8.16,1.34-1.85,3.6-2.83,6.55-2.83.98,0,2.02.11,3.1.33,1.97.39,4.11.47,6.37.55,3.57.13,7.27.25,10.63,1.69,2.13.91,3.91,1.67,4.91,2.09l3.87-2.81c.88-.95,5.27-5.24,14.11-6.24.84-.09,1.69-.14,2.54-.14,7.87,0,13.43,4.09,14.36,4.82,1.38.79,11.96,7.15,13.44,17.19.72,4.87,1.02,8.53.9,10.65,2.51,1.3,7.41,4.37,6.45,8.21-.08.31-.25.6-.48.82l-3.21,3.04c-.31.3-.73.46-1.16.46h-.08c-.46-.02-.89-.23-1.19-.58l-2.76-3.16-.4,1.2c2.03,1.81,7.13,6.71,11.98,14.12,5.55,8.47,11.74,21.9,10.08,38.12,1.26,1.09,3.87,3.53,5.98,6.83,3.93,6.14,4.26,12.24.94,17.63-4.15,6.75-9.83,8.16-13.87,8.16-2.86,0-5.27-.7-6.59-1.18-3.76,3.28-19.73,16.09-40.32,16.09h0Z"/><path d="m626.73,34.28c7.94,0,13.41,4.54,13.41,4.54,0,0,11.27,6.22,12.72,16.03,1.45,9.82.73,11.39.73,11.39,0,0,7.52,3.35,6.66,6.81l-3.21,3.04-4.7-5.39-1.7,5.08s25.99,21.21,22.24,52.42c0,0,14.49,11.12,7.27,22.86-3.62,5.89-8.48,7.36-12.43,7.36s-6.94-1.45-6.94-1.45c0,0-17.26,16.36-39.97,16.36-1.41,0-2.85-.06-4.3-.2-27.77-2.57-54.14-11.81-70.81-35.5-12.35-17.55-7.47-27.37-7.47-27.37,0,0-14.78-13.69-8.77-27.74,4.11-9.61,13.8-11.13,19.51-11.13,2.63,0,4.42.32,4.42.32,0,0,3.27-9.36,27.78-15.18-.03,0-.05,0-.08,0-1.39,0-5.02-8.01-5.33-8.95-1.97-5.97.85-8.77,5.45-8.77.87,0,1.79.1,2.77.29,5.28,1.06,11.58-.04,16.67,2.13,3.33,1.43,5.79,2.47,5.79,2.47l4.8-3.48s3.97-4.78,13.16-5.82c.8-.09,1.59-.13,2.34-.13m0-3.27c-.91,0-1.82.05-2.73.15-8.97,1.02-13.75,5.32-15.04,6.64l-2.98,2.16c-1.02-.44-2.42-1.03-4.02-1.72-3.65-1.56-7.5-1.69-11.23-1.82-2.2-.08-4.27-.15-6.1-.52-1.19-.24-2.34-.36-3.43-.36-3.46,0-6.27,1.25-7.92,3.52-1.24,1.7-2.36,4.77-.75,9.69.27.8,1.41,3.32,2.48,5.35.1.19.2.38.3.57-8.22,2.38-14.71,5.43-19.34,9.08-2.14,1.69-3.52,3.24-4.39,4.45-.74-.05-1.63-.1-2.63-.1-2.98,0-7.43.39-11.7,2.24-5.08,2.2-8.76,5.88-10.92,10.94-2.89,6.75-2.09,14.41,2.3,22.14,1.98,3.49,4.27,6.24,5.75,7.85-.35,1.5-.63,3.66-.44,6.42.47,6.79,3.49,14.19,8.97,21.98,8.14,11.57,19.1,20.59,32.59,26.79,11.47,5.28,25.16,8.69,40.67,10.13,1.52.14,3.07.21,4.61.21,9.87,0,20.31-2.98,30.18-8.63,4.91-2.81,8.55-5.62,10.5-7.25,1.51.47,3.71.96,6.23.96,4.47,0,10.76-1.56,15.31-8.97,3.68-5.98,3.35-12.7-.96-19.43-1.9-2.96-4.18-5.28-5.65-6.61,1.12-12.98-2.47-26.2-10.43-38.35-2.49-3.81-5.06-6.97-7.26-9.41.22-.13.43-.28.62-.47l3.21-3.03c.43-.4.76-.91.92-1.48.56-1.99.33-5.14-4.27-8.44-.71-.51-1.43-.95-2.06-1.32,0-1.94-.22-5.01-.94-9.92-.71-4.78-3.45-9.52-7.95-13.69-2.76-2.56-5.39-4.18-6.22-4.67-1.3-1-7.17-5.11-15.3-5.11h0Z"/><path class="cls-1" d="m575.23,82.52s6.8-6.26,14.38-2.96"/><path class="cls-1" d="m626.83,88.44s10.76,2.33,11.92,9.58"/><path class="cls-1" d="m598.5,125.24s-11.39-1.18-7.61-6.77c3.78-5.59,9.73-.85,9.73-.85"/><path class="cls-1" d="m611.61,137.5c-19.43,4.74-30.45-7.19-30.45-7.19,3.41-5.41-.85-10.57-.85-10.57"/><path class="cls-1" d="m569.74,132s8.07,4.32,11.42-1.69"/><path class="cls-1" d="m622.18,142.15s-12.84.58-10.24-8.63c0,0,.96-4.39,5.16-5.32"/><circle cx="572.03" cy="121.55" r=".85"/><circle cx="619.4" cy="132.13" r=".85"/><circle cx="621.94" cy="137.62" r=".85"/><circle cx="625.32" cy="133.39" r=".85"/><circle cx="572.03" cy="126.2" r=".85"/><circle cx="575.84" cy="122.82" r=".85"/><path class="cls-3" d="m609.18,120.65s2.14-26.24,13.11-25.25,9.97,18.61,9.97,18.61l-.66,9.11s-19-4.85-22.42-2.47h0Z"/><path d="m628.28,99.16c-.66-.49-1.37.63-1.42,1.08-.05.51.31,1.32.42,1.82.39,1.75,1.54,4.73-1.05,5.44-1.69.46-4.28-.85-5.37,1.09.09-.17,3.03.87,3.34,1.01,1.13.48,2.15,1.2,2.62,2.38.55,1.39.42,2.96.56,4.42.13,1.3.2,2.62,0,3.92-.18,1.16-.17,1.27-1.14,1.25-1.32-.03-2.73-.44-4.02-.65l-6.92-1.12h-4.43l-1.68.91,2.78-14.02,3.64-7.89,3.46-2.84,4.44.05c1.59,1.04,3.24,2.03,4.76,3.16h0Z"/><path class="cls-7" d="m572.18,110.98c.31-2.27.64-4.53,1-6.79.25-1.55.49-3.1.82-4.64,1.13-5.42,5.53-10.46,10.65-12.41,3.9-1.48,7.72.3,9.99,3.6,2.91,4.24,2.24,9.27,1.47,14.05-.35,2.18-.73,4.36-1.26,6.5-.3,1.25-.6,3.42-1.67,4.29,0,0-19.41-6.94-21-4.62h0Z"/><path d="m593.97,89.28c-.59-.41-2.2.47-2.67.82-.87.66-.79,1.16-.71,2.23.12,1.54.39,3.09.7,4.59,0,0,.63,3.02-3.63,3.35,0,0-1.78.22-2.59.91s4.14.25,4.41,3.64c.18,2.21-.57,5.41-1.49,7.41-.4.86-.52.76-1.48.66-1.24-.13-2.47-.48-3.66-.63-1.36-.18-2.73-.4-4-.93-1.75-.73-3.63-.09-5.33-.44-1.67-.35.14-5.21.32-6.21l1.46-8.2,5.18-6.88,5.87-3.01,4.67.63,2.95,2.04h0Z"/><path class="cls-8" d="m579.62,56.18s11.69-2.73,14.63-2.62"/><path class="cls-8" d="m606.42,43.29s47.7,23.29,44.19,32.06l-20.64-5.56c-7.09-1.98-15.29-3.46-21.43-7.71-6.55-4.52-12.63-10.43-17.64-16.59-2.43-2.99-5.22-5.71-8.49-7.77"/><path class="cls-8" d="m611.22,40.24s27.44,12.56,28.92,15.75"/><path d="m635.9,59.67s6.96-8.72,17.62-4.4c0,0,3.05,11.24-1.57,19.2,0,0-6.54-8.37-16.06-14.8h0Z"/><path d="m538.21,110.25l6.54-24.44-13.77,14.76s2.29,10.52,4.64,9.94,2.58-.25,2.58-.25h0Z"/><path class="cls-9" d="m582.18,203.64c-8.64-.23-14.14-6.23-15.08-7.33-3.05-2.49-2.94-8.27.34-17.66,2.29-6.56,5.28-12.44,5.41-12.68.3-.58.88-.92,1.51-.92.16,0,.33.03.5.08l13.06,4.03c.5.15.9.53,1.08,1.02.19.49.13,1.04-.14,1.48l-4.23,6.87c-3.42,5.92-3.46,8.65-3.34,9.5,1.11.54,3.03.85,5.28.85.77,0,1.28-.04,1.28-.04.04,0,.08,0,.12,0,.56,0,1.09.28,1.41.75.34.51.38,1.15.11,1.7l-5.75,11.44c-.29.57-.87.93-1.51.93h-.04,0Z"/><path d="m574.35,167.1l13.06,4.03-4.24,6.89c-5.14,8.88-3.29,11.5-3.29,11.5,1.75,1.21,4.87,1.4,6.68,1.4.85,0,1.41-.04,1.41-.04l-5.75,11.44c-8.63-.22-13.94-6.86-13.94-6.86-6.08-4.55,6.07-28.36,6.07-28.36m0-3.78c-1.24,0-2.42.69-3.02,1.84-.13.25-3.17,6.23-5.49,12.9-2.25,6.45-4.66,15.41.07,19.43,1.32,1.5,7.19,7.57,16.22,7.81h.09c1.28,0,2.44-.72,3.02-1.86l5.75-11.44c.55-1.09.47-2.39-.21-3.4-.63-.94-1.69-1.5-2.81-1.5-.08,0-.17,0-.25,0h0s-.47.03-1.15.03c-1.5,0-2.72-.15-3.57-.35.17-1.18.81-3.52,3.08-7.44l4.16-6.77c.25-.41.45-.87.52-1.35.23-1.77-.84-3.27-2.36-3.74l-13.06-4.03c-.33-.1-.66-.15-1-.15h0Z"/><path class="cls-9" d="m532.06,243.66c-.81-.02-1.49-.6-1.63-1.39-.39-2.19.11-4.42.62-6.35,1.21-4.62,2.73-9.39,6.78-12.43,3.06-2.29,7.17-3.66,12.58-4.19,1.56-.15,3.22-.23,4.92-.23,2.8,0,5.85.21,9.3.63.37.05,1.5.26,3.64.67,1.81.35,4.83.92,6.4,1.18,3.57-7.1,24.09-47.87,24.09-47.87.29-.58.88-.93,1.51-.93.09,0,.19,0,.28.03l12.97,2.18c.53.09.99.43,1.23.91s.24,1.05,0,1.53l-23.82,47.01c8.65,4.23,8.49,14.29,7.08,19.3-.21.73-.87,1.23-1.63,1.23-.01,0-64.32-1.27-64.32-1.27h0Z"/><path d="m600.27,174.44l12.97,2.18-24.64,48.63c11.7,4.09,7.78,17.99,7.78,17.99l-64.29-1.27c-.33-1.86.12-3.83.59-5.62,1.12-4.28,2.47-8.74,6.16-11.5,3.35-2.51,7.65-3.46,11.73-3.86,1.58-.15,3.17-.22,4.76-.22,3.04,0,6.09.25,9.1.62.9.11,10.18,1.99,11.15,1.99.05,0,.08,0,.08-.01,0-.02,24.62-48.92,24.62-48.92m.03-3.69c-1.26,0-2.44.71-3.02,1.86,0,0-18.78,37.32-23.55,46.8-1.6-.29-3.75-.69-5.14-.96-2.45-.47-3.35-.64-3.75-.69-3.53-.43-6.64-.64-9.52-.64-1.76,0-3.47.08-5.09.24-5.73.56-10.13,2.04-13.45,4.52-4.5,3.37-6.13,8.45-7.41,13.37-.55,2.1-1.1,4.56-.64,7.08.28,1.59,1.65,2.76,3.27,2.79l64.35,1.27h.07c1.51,0,2.85-1.01,3.26-2.47.05-.17,1.16-4.18.6-8.79-.62-5.14-3.09-9.17-7.07-11.68l23.1-45.59c.23-.45.38-.94.38-1.44,0-1.79-1.25-3.17-2.84-3.44l-12.98-2.18c-.19-.03-.38-.05-.56-.05h0Z"/><path class="cls-9" d="m615.46,244.76c-.82,0-1.52-.58-1.68-1.39-.03-.17-.8-4.29-.27-8.85.65-5.7,3.02-9.6,6.9-11.4-.75-3-2.18-10.08-1.76-19.26l-14.8.61s.1,0,.07,0c-.55,0-1.07-.28-1.37-.75-.31-.49-.34-1.1-.08-1.62l5.46-10.72c.28-.55.84-.89,1.45-.89h11.64c.83-3.17,3.36-7.44,8.87-7.44.57,0,1.18.05,1.79.14,7.48,1.15,9.34,7.64,9.28,10.98.25,4.77,2.21,43.9.52,49.39-.22.71-.87,1.19-1.61,1.19h-24.41,0Z"/><path d="m629.86,184.69c.48,0,.99.04,1.53.12,8.07,1.23,7.87,9.36,7.87,9.36,0,0,2.26,43.55.6,48.94h-24.41s-2.98-15.76,6.93-18.69c0,0-2.9-9.13-1.98-21.86l-16.5.68,5.66-11.11h12.83s.84-7.45,7.49-7.45m-.03-3.24h0c-3.93,0-7.18,1.92-9.13,5.42-.38.68-.67,1.36-.9,1.98h-10.45c-1.23,0-2.35.69-2.91,1.78l-5.47,10.74c-.53,1.03-.46,2.27.16,3.24.6.94,1.64,1.5,2.75,1.5.04,0,0,0,.04,0l12.95-.54c-.15,7.38.83,13.28,1.57,16.61-3.67,2.27-5.99,6.45-6.63,12.08-.55,4.81.26,9.17.29,9.36.31,1.61,1.71,2.78,3.35,2.78h24.4c1.49,0,2.8-.98,3.24-2.4.33-1.08,1.19-4.04.46-27.48-.33-10.79-.85-21.12-.92-22.32.04-3.87-2.13-11.28-10.7-12.59-.69-.11-1.38-.16-2.04-.16h-.09Z"/><polygon points="574.35 167.1 583.17 178.02 587.41 171.13 574.35 167.1"/><polygon points="603.85 203.29 615.21 191.74 608.69 190.6 603.85 203.29"/><polygon points="619.58 202.61 628.86 202.32 619.45 215.94 619.58 202.61"/><polygon points="600.27 174.44 609.86 183.29 613.24 176.62 600.27 174.44"/><path class="cls-8" d="m573.97,222.51s4.89-.45,6.66,2.91"/><path class="cls-8" d="m621.95,224.09s1.58-1.56,4.28-.55"/></g></g><g id="b-2"><g id="c-2"><path class="cls-9" d="m769.91,168.67c-7.93,0-16.23-1.09-24.67-3.23-2.72-.69-5.51-1.5-8.27-2.42-14.26-4.72-25.94-11.43-34.73-19.95-10.36-10.05-16.78-23.13-17.62-35.9-.03-.42-.05-.85-.07-1.27-.11-2.18-.22-4.22-1.04-5.95-.55-1.18-1.46-2.23-2.41-3.34-.27-.32-.54-.63-.8-.95-4.63-5.6-7.02-12.2-6.73-18.56.33-7.26,4.4-13.89,10.37-16.89,2.75-1.38,5.71-1.95,8.58-2.51.94-.18,1.91-.37,2.83-.58,7.54-1.72,14.65-5.53,21.52-9.22,7.58-4.06,15.41-8.26,24.07-9.88,3.19-.6,6.55-.9,9.99-.9,25.09,0,50.21,15.44,63.97,30.75,2.6,2.9,5.3,6.03,7.18,9.73,1.67,3.29,2.6,6.82,3.49,10.23l5.1,19.47c1.31,5,2.67,10.18,4.85,14.88.42.9.86,1.8,1.34,2.74,2.28,4.58,4.87,9.76,3.54,15.17-1.89,7.7-10.46,11.13-17.24,11.72-5.81.51-10.3,3.33-15.05,6.32-3.1,1.95-6.31,3.97-10.01,5.41-6.9,2.7-14.34,4.35-22.1,4.9-2,.14-4.05.22-6.09.22h-.01Z"/><path d="m750.91,38.8c23.1,0,48.03,13.92,62.63,30.16,2.6,2.89,5.15,5.87,6.91,9.34,1.58,3.1,2.47,6.5,3.36,9.87,1.7,6.49,3.4,12.98,5.1,19.47,1.35,5.16,2.72,10.35,4.96,15.18,2.5,5.38,6.17,10.97,4.77,16.73-1.59,6.49-8.99,9.77-15.64,10.36-10.18.89-16.39,8.27-25.56,11.85-6.89,2.69-14.21,4.26-21.57,4.79-1.99.14-3.97.21-5.96.21-8.16,0-16.3-1.16-24.23-3.18-2.74-.7-5.46-1.5-8.15-2.38-12.53-4.14-24.57-10.35-34.04-19.53-9.47-9.18-16.21-21.56-17.07-34.73-.18-2.68-.14-5.46-1.28-7.88-.83-1.76-2.22-3.17-3.45-4.67-4.01-4.85-6.61-11.05-6.32-17.33.29-6.28,3.76-12.54,9.38-15.36,3.4-1.71,7.29-2.1,11-2.95,16.1-3.68,29.29-16.05,45.52-19.08,3.16-.59,6.39-.87,9.66-.87m0-3.18c-3.54,0-7.01.31-10.32.93-8.94,1.67-16.9,5.94-24.59,10.07-7.08,3.8-13.76,7.38-21.07,9.05-.9.21-1.81.38-2.77.57-2.98.58-6.07,1.18-9.04,2.67-6.54,3.28-10.99,10.51-11.35,18.42-.31,6.81,2.22,13.84,7.14,19.79.27.32.54.65.82.97.87,1.02,1.7,1.99,2.15,2.94.66,1.4.76,3.28.87,5.27.02.44.05.87.07,1.3.45,6.86,2.36,13.67,5.69,20.25,3.12,6.17,7.31,11.83,12.47,16.83,8.99,8.71,20.9,15.57,35.42,20.37,2.8.93,5.62,1.75,8.4,2.45,8.59,2.18,17.04,3.29,25.12,3.29,2.09,0,4.18-.08,6.22-.22,7.94-.57,15.55-2.26,22.63-5.02,3.86-1.51,7.14-3.57,10.31-5.57,4.56-2.87,8.87-5.58,14.25-6.05,4.1-.36,8.09-1.59,11.24-3.45,4-2.36,6.62-5.7,7.58-9.64,1.48-6.05-1.26-11.55-3.68-16.41-.47-.94-.91-1.82-1.32-2.7-2.12-4.56-3.45-9.65-4.74-14.58l-2.55-9.73-2.55-9.73c-.92-3.5-1.87-7.13-3.63-10.59-1.98-3.89-4.77-7.13-7.45-10.12-14.03-15.61-39.67-31.36-65.31-31.36h0Z"/><path class="cls-5" d="m753.66,95.95c1.75-7.05,1.91-17.44-5.8-21.06-5.77-2.71-12.87.29-15.39,6.07l-9.14,28.77c4-1.26,8-2.66,12.19-3.15,1.38-.16,2.77-.26,4.16-.11s2.63.72,3.98,1.13c.8.24,2.05.23,2.21-.83.09-.62-.24-1.35-.29-1.97s-.03-1.29.08-1.87c.27-1.52,1.06-2.82,2.16-3.88.75-.73,5.76-2.77,5.84-3.09h0Z"/><path class="cls-4" d="m761.56,101.53c-3.69-7.3-15.29-4.58-15.84,3.4s10.9,14.26,15.04,5.65"/><path class="cls-1" d="m785.07,76.99s7.58,2.68,8.4,9.58"/><path class="cls-1" d="m736.34,70.46s6.45-4.54,12.61-3.15"/><path class="cls-1" d="m796.63,105.91s-.74,7.42-1.99,8.74"/><path class="cls-1" d="m801.2,107.96s-.77,4.35-1.36,5.28"/><path d="m748.39,76.11c1.19,1.23,1.94,2.84.55,4.19-1.46,1.42-3.14,2.78-4.41,4.36.33-.39,2.68,1.32,2.94,1.53,3.07,2.38-.32,9.4-1.15,12.51s-1.67,6.18-2.53,9.27c0,0-8.1-2.22-20.47,1.77l9.14-28.77s2.21-4.37,6.8-6.52c3.02-1.42,6.8-.72,9.12,1.66h0Z"/><path class="cls-5" d="m764.02,113.54c-.18-.18-.17-.54.14-1.27,1.85-4.45,3.42-9.01,5.06-13.55l2.29-6.36.11-.32s3.19-8.72,10.91-7.93c10.25,1.04,9.62,15.9,8.29,22.91-1.19,6.22-3.37,11.76-5.75,17.6-1.48-1.35-3.07-2.6-4.67-3.79-3.13-2.33-6.46-4.5-10.1-5.95-1-.4-2.03-.74-3.09-.96-.53-.11-1.06-.16-1.6-.19-.76-.05-1.35.04-1.59-.19h0Z"/><path d="m788.21,87.82s1.32,3.2-1.25,4.64-4.17,2.69-4.17,2.69c0,0-.55.67,2.09,1.96,3.22,1.57,1.71,7.56,1.07,10.21-1.12,4.59-3.21,14.7-3.21,14.7-4.17-3.07-8.71-6.11-13.54-8-1.36-.53-2.74-.96-4.22-.87-1.14.07-1.41-.58-1.13-1.58.34-1.27.77-2.45,1.25-3.69,1.28-3.31,2.66-6.59,4.07-9.85,1.06-2.47,2.14-4.93,3.23-7.38.34-.76.75-2.56,1.4-3.12.02-.01,8.78-7.6,14.42.28h0Z"/><path class="cls-1" d="m738.44,142.1s4.29,5.32,11.5,3.9"/><path class="cls-1" d="m785.07,124.62l3.91,4.04s1.91,2.27,4.86,3.46,5.35,1.54,7.07,4.3c1.72,2.75-5.27,3.04-5.27,3.04,0,0-7.51.54-10.4-1.45-1.5.49-3.13.82-4.7.89-1.85.08-3.39-.69-4.87-1.71-.64-.44-1.54-1.46-2.3-1.61-.86-.16-1.49.5-2.22.8-5.28,2.15-8.6-2.83-11.39-6.38-1.82-2.32-3.75-6.27-6.53-7.46-2.78-1.19-6.36,1.02-8.73,2.31-2.98,1.61-5.52,3.99-9.1,4.06-3.53.07-8.03-.75-8.36-5.08,0,0-11.05,3.02-11.64-6.81,0,0-10.48-.3-9.58-6.41,0,0,.09-1.73,4.09-.32,2.46.87,5.12.93,7.7.67,1.96-.2,5.03-.3,6.13-2.28"/><path class="cls-1" d="m764.26,113.69s-3.11-.27-3.2-.34"/><path class="cls-1" d="m715.39,117.01s3.07.25,5.18-.62"/><path class="cls-1" d="m727.03,123.82s2.95-.68,4.26-1.79"/><path class="cls-1" d="m773.66,135.58s-2.05-1.65-3.99-4.77"/><path class="cls-1" d="m785.25,138.01s-5.29-3.63-6.67-7.2"/><circle cx="731.02" cy="43.24" r=".9"/><circle cx="770.72" cy="48.99" r=".9"/><circle cx="792.28" cy="60.8" r=".9"/><circle cx="777.86" cy="50.9" r=".9"/><circle cx="781.47" cy="49.99" r=".9"/><circle cx="784.62" cy="54.95" r=".9"/><circle cx="789.57" cy="54.95" r=".9"/><circle cx="794.53" cy="54.5" r=".9"/><circle cx="776.96" cy="45.49" r=".9"/><circle cx="768.41" cy="45.04" r=".9"/><circle cx="761.2" cy="44.59" r=".9"/><circle cx="761.65" cy="41.89" r=".9"/><circle cx="755.79" cy="42.79" r=".9"/><circle cx="753.99" cy="39.64" r=".9"/><circle cx="747.69" cy="42.79" r=".9"/><circle cx="744.99" cy="40.09" r=".9"/><circle cx="739.58" cy="42.34" r=".9"/><circle cx="800.38" cy="60.35" r=".9"/><circle cx="798.13" cy="64.86" r=".9"/><circle cx="806.24" cy="65.76" r=".9"/><path d="m737.14,129.66c-.44,4.81,1.15,10.26,6.11,11.76,4.43,1.34,9.76,1.53,13.49-1.71,1.97-1.71,3.47-4.39,4.82-6.67l-7.59-10.08c-.83-1.1-2.74-.95-3.88-.56-1.92.65-3.96,1.63-5.74,2.62-1.77.98-3.31,2.32-5.18,3.11-.72.31-1.92.49-2.02,1.54h0Z"/><circle cx="812.54" cy="68.91" r=".9"/><circle cx="814.8" cy="74.32" r=".9"/><circle cx="817.05" cy="81.97" r=".9"/><path class="cls-6" d="m742.6,140.14c-1.29-1.75,3.04-3.9,4.22-4.56,3.04-1.67,6.09-2.69,9.59-2.84,2.27-.1,4.5.8,4.5.8.3.16-2.78,4.29-3.1,4.63-1.8,1.91-4.37,2.88-6.9,3.29s-5.61.6-7.75-.81c-.25-.16-.43-.33-.56-.5h0Z"/><path class="cls-2" d="m721.39,39.98c-.13.01-.27.02-.4.03-2.44.05-4.58-1.42-6.96-.14-2.13,1.14-3.46,3.32-5.57,4.5-1.54.86-3.44.93-4.81,2.11-1.13.97-2.48,1.95-3.34,3.25-.92,1.4-1.13,3.14-2.04,4.56-.45.72-2.58,2.38-1.91,3.32.46.64,3.36.39,4.13.33,1.27-.09,2.66-.35,3.86-.78,1.12-.41,2.01-1.3,3.18-1.59,1.33-.34,2.79-.07,4.15-.32,4.34-.8,7.17-3.37,10.39-6.13,2.22-1.91,4.33-3.95,6.39-6.04,1.5-1.53,1.36-2.86-.77-3.76s-4.27.44-6.31.68h0Z"/><path class="cls-2" d="m822.25,78.68c.86-.1,1.73.14,2.53.47,2.94,1.18,5.38,3.47,6.94,6.23.84,1.5,1.43,3.13,1.78,4.81.31,1.49,0,3.5.86,4.64,1.79,2.39,3.07,4.53,3.73,7.52.68,3.06.54,6.31-.5,9.28-.3.84-.66,1.67-.84,2.55-.19.97-.14,1.98-.24,2.96-.22,1.97-1.1,3.86-2.47,5.3-3.33-3.38-6.62-6.99-8.32-11.42-.5-1.32-.86-2.75-.64-4.15.05-.32.13-.64.04-.95-.08-.26-.26-.46-.44-.67-1.65-1.86-3.13-3.86-4.41-5.99-1.06-1.76-2-3.71-1.88-5.76.03-.5.12-1,.08-1.51-.05-.52-.25-1.01-.41-1.5-.99-3.03-.63-6.48.98-9.24.68-1.17,1.67-2.27,2.99-2.54.08-.02.16-.03.24-.04h-.01Z"/><path class="cls-9" d="m733.44,200.49c-5.27,0-10.59-3.41-10.82-3.55-5.43-3.54-7.64-8.66-6.55-15.23.89-5.37,3.78-10.89,6.33-15.76.92-1.76,1.79-3.42,2.49-4.92l.48-1.04h1.15c.2,0,4.89,1.59,14.07,4.77l2.12.73s-7.33,11.72-7.34,11.74c-2.43,3.88-2.24,5.62-1.91,6.32.5,1.05,2.2,1.47,3.53,1.64.18.02.37.04.56.04.68,0,1.41-.15,2.22-.47l4.55-1.76-2.33,4.29c-1.51,2.79-3.08,5.61-4.59,8.34-.73,1.31-1.45,2.63-2.18,3.94l-.5.91-1.04.02h-.25Z"/><path d="m726.35,161.92l13.38,4.64s-6.08,9.72-6.09,9.73c-2.99,4.78-4.23,9.75,2.88,10.63.26.03.52.05.77.05.98,0,1.93-.23,2.85-.59-2.21,4.07-4.47,8.12-6.71,12.18h-.21c-4.79,0-9.77-3.24-9.77-3.24-12.84-8.37-1.6-23.66,2.9-33.4h0m0-3.86h-2.31l-.97,2.09c-.68,1.47-1.55,3.12-2.46,4.87-2.63,5.02-5.61,10.7-6.55,16.4-1.2,7.27,1.35,13.19,7.38,17.12.61.4,6.13,3.87,11.87,3.87h.29l2.08-.04,1.01-1.82c.73-1.32,1.46-2.64,2.19-3.96,1.52-2.75,3.09-5.59,4.62-8.4l4.69-8.62-9.16,3.54c-.61.23-1.13.35-1.59.35-.12,0-.23,0-.34-.02-1.55-.19-2.05-.56-2.15-.64-.03-.18-.16-1.44,1.84-4.64h0s.18-.29,6.17-9.86l2.4-3.84-4.28-1.48-6.78-2.35-4.66-1.62c-1.79-.62-2.89-.93-3.3-.93h0Z"/><path class="cls-9" d="m699.69,244.84c-3.84,0-6.95-.03-9.76-.09-.41,0-.83-.01-1.25-.01-2.95-.02-6-.04-7.93-2.1-1.14-1.23-1.66-2.98-1.53-5.22.03-.45.75-10.99,9.38-15.47,6.98-3.62,10.62-3.82,15.22-4.07.83-.05,1.7-.09,2.64-.16.52-.04,1.12-.06,1.77-.06,5.52,0,14.32,1.42,17.66,2l26.19-51.65,18.46,1.9-27.1,52.27c1.78.63,3.3,1.72,4.55,3.27,4.78,5.95,3.66,16.7,3.61,17.16l-.17,1.57-1.58.04c-3.92.09-8.12.17-13.61.26-9.57.17-20.9.34-32.37.37-1.39,0-2.78,0-4.17,0h0Z"/><path d="m753.26,169.8l14.59,1.5-26.96,51.98c11,1.18,9.04,18.99,9.04,18.99-4.54.1-9.07.18-13.61.26-10.78.18-21.56.34-32.35.37-1.39,0-2.77,0-4.16,0-3.24,0-6.49-.02-9.72-.09-4.43-.09-9.3.5-8.95-5.43,0-.15.61-9.93,8.41-13.98,7.86-4.08,11.06-3.58,17.16-4.04.5-.04,1.04-.05,1.63-.05,6.68,0,18.67,2.2,18.67,2.2l26.23-51.74m-2.09-4.12l-1.12,2.21-25.03,49.36c-4.01-.66-11.63-1.8-16.66-1.8-.69,0-1.33.02-1.9.06-.92.07-1.77.12-2.6.16-4.63.25-8.63.47-15.95,4.27-9.54,4.95-10.32,16.48-10.35,16.96-.16,2.75.51,4.96,2.01,6.55,2.46,2.63,6.22,2.65,9.23,2.67.41,0,.82,0,1.23.01,2.83.06,5.95.09,9.8.09,1.39,0,2.78,0,4.17,0,11.49-.04,22.82-.21,32.4-.38,3.72-.06,8.63-.15,13.62-.26l3.16-.07.35-3.14c.01-.12.32-2.98.04-6.56-.41-5.08-1.76-9.1-4.04-11.93-1-1.24-2.17-2.24-3.49-2.98l25.02-48.25,2.44-4.7-5.27-.54-14.59-1.5-2.46-.25h0Z"/><path class="cls-9" d="m778.33,245.05c-6.55,0-8.21-.81-8.85-2.22-3.59-7.93-.99-16.61,6.29-21.55-.65-3.29-2.27-12.45-2.07-20.35l-18.76.48,8.09-16.34h13.86c1.26-2.22,4.64-7.14,9.93-7.33.14,0,.27,0,.4,0,5.62,0,8.16,4.54,9.3,8.34,1.26,4.21,1.46,9.37,1.6,13.13.05,1.19.09,2.22.15,3.07.15,1.98.78,11.91,1.1,21.22.19,5.42.24,9.75.17,12.87-.13,5.13-.5,7.31-2.5,7.52h-.05c-1.32.14-11.38,1.17-18.68,1.17h0Z"/><path d="m787.2,179.67c9.62,0,8.72,16.32,9.21,22.79.28,3.71,2.51,39.29.38,39.52,0,0-10.87,1.16-18.46,1.16-3.8,0-6.77-.29-7.17-1.16-3.49-7.72-.34-15.75,6.64-19.86,0,0-2.86-13.22-2.18-22.98l-17.63.45,6.24-12.6h13.78s3.22-7.09,8.86-7.31c.11,0,.22,0,.33,0m.24-3.86h0c-.15,0-.31,0-.47,0-5.53.21-9.13,4.56-10.85,7.31h-13.89l-.99,2-6.24,12.6-2.65,5.36,5.97-.15,13.84-.36c.06,6.76,1.22,13.98,1.89,17.63-3.09,2.37-5.41,5.5-6.65,9.03-1.58,4.49-1.32,9.45.73,13.96,1.25,2.75,4.63,3.27,10.45,3.27,7.66,0,18.39-1.13,18.84-1.18.57-.06,2.49-.44,3.35-2.78.19-.52.33-1.13.44-1.91.16-1.1.26-2.59.31-4.55.08-3.14.02-7.49-.17-12.92-.32-9.31-.95-19.23-1.1-21.21-.06-.82-.1-1.82-.14-3-.15-3.85-.35-9.11-1.67-13.53-2.37-7.93-7.28-9.59-10.99-9.59h0Z"/><polygon points="726.36 161.85 735.17 174.12 739.91 166.54 726.36 161.85"/><polygon points="753.26 169.52 763.59 179.24 767.85 171.02 753.26 169.52"/><polygon points="774.87 207.76 780.45 198.95 775.16 198.7 774.87 207.76"/><path class="cls-1" d="m726.58,220.35s3.25.77,4.41,3.82"/><path class="cls-1" d="m777.35,221.23s1.84-1.49,4.9,0"/><polygon points="757.98 199.15 768.41 185.17 765.01 184.66 757.98 199.15"/><polygon points="685.58 100.42 690.94 76.24 677.43 92.41 685.58 100.42"/></g></g></g></svg>