<?xml version="1.0" encoding="utf-8"?>
<!-- Generator: Adobe Illustrator 27.4.0, SVG Export Plug-In . SVG Version: 6.00 Build 0)  -->
<svg version="1.1" id="Layer_2_00000078020641477379570550000007645929547112854176_"
	 xmlns="http://www.w3.org/2000/svg" xmlns:xlink="http://www.w3.org/1999/xlink" x="0px" y="0px" viewBox="0 0 411.5 110.7"
	 style="enable-background:new 0 0 411.5 110.7;" xml:space="preserve">
<style type="text/css">
	.st0{fill:#FFFFFF;}
</style>
<g>
	<path class="st0" d="M139.1,44.1c-1,0-1.9,0.1-2.8,0.3l7.2,7.2c1,1,1,2.5,0,3.4l-13.8,13.8c2.5,2.2,5.8,3.5,9.3,3.5
		c7.8,0,14.1-6.3,14.1-14.1S146.9,44.1,139.1,44.1L139.1,44.1z"/>
	<path class="st0" d="M125,58.3c0-6.8,4.9-12.6,11.3-13.8l-9.3-9.3c-1-1-2.5-1-3.4,0L103,55.7c-1,1-0.9,2.5,0,3.4l16.5,16.5
		c1,1,2.5,1,3.4,0l6.8-6.8C126.8,66.3,125,62.5,125,58.3L125,58.3z"/>
</g>
<path class="st0" d="M161.9,54.1V42.3h5.6c0.9,0,1.7,0.2,2.4,0.5c0.7,0.3,1.2,0.8,1.6,1.4c0.4,0.6,0.6,1.3,0.6,2.1
	c0,0.8-0.2,1.5-0.6,2.1c-0.4,0.6-0.9,1.1-1.6,1.4s-1.5,0.5-2.4,0.5h-2.7v4L161.9,54.1L161.9,54.1z M167,48c0.4,0,0.8-0.1,1.2-0.2
	c0.3-0.1,0.6-0.4,0.8-0.6c0.2-0.3,0.3-0.6,0.3-1c0-0.6-0.2-1-0.6-1.3c-0.4-0.3-0.9-0.5-1.6-0.5h-2.3V48H167L167,48z M175.2,54.3
	c-0.6,0-1.1-0.1-1.6-0.3c-0.5-0.2-0.8-0.5-1.1-0.9c-0.3-0.4-0.4-0.8-0.4-1.3c0-0.7,0.3-1.4,1-1.9c0.6-0.5,1.6-0.8,2.8-0.9l1.6-0.2
	c0.2,0,0.4-0.1,0.5-0.2c0.1-0.1,0.2-0.3,0.2-0.4c0-0.2-0.1-0.5-0.2-0.6c-0.1-0.2-0.3-0.3-0.6-0.4c-0.2-0.1-0.5-0.1-0.8-0.1
	c-0.3,0-0.6,0.1-0.9,0.2c-0.3,0.1-0.5,0.3-0.6,0.6c-0.2,0.2-0.3,0.5-0.3,0.8l-2.5-0.4c0.1-0.6,0.3-1.1,0.6-1.6
	c0.4-0.5,0.9-0.8,1.5-1.1c0.6-0.3,1.3-0.4,2.1-0.4c0.8,0,1.5,0.1,2.2,0.4c0.6,0.3,1.1,0.7,1.4,1.2c0.3,0.5,0.5,1.1,0.5,1.8V52
	c0,0.2,0,0.3,0.1,0.4c0.1,0.1,0.2,0.2,0.3,0.2c0.1,0,0.2,0,0.3-0.1c0.1-0.1,0.2-0.2,0.3-0.3l0.6,1.3c-0.3,0.2-0.6,0.4-1,0.6
	c-0.4,0.1-0.8,0.2-1.2,0.2c-0.5,0-0.9-0.1-1.3-0.4c-0.4-0.3-0.6-0.6-0.6-1l0-0.3h0c-0.2,0.3-0.4,0.6-0.7,0.9
	c-0.3,0.3-0.7,0.5-1.1,0.6S175.7,54.3,175.2,54.3L175.2,54.3z M176.2,52.6c0.4,0,0.7-0.1,1.1-0.3c0.3-0.2,0.6-0.4,0.7-0.7
	c0.2-0.3,0.3-0.6,0.3-1v-0.3l-1.6,0.2c-0.7,0.1-1.1,0.2-1.4,0.4c-0.3,0.2-0.4,0.4-0.4,0.7s0.1,0.5,0.4,0.7S175.8,52.6,176.2,52.6
	L176.2,52.6z M188.5,45.3c0.6,0,1.1,0.1,1.5,0.3c0.4,0.2,0.7,0.6,1,1c0.2,0.4,0.3,1,0.3,1.6v5.9h-2.5V49c0-0.5-0.1-0.9-0.4-1.1
	s-0.6-0.4-1-0.4c-0.4,0-0.7,0.1-1,0.2c-0.3,0.2-0.5,0.4-0.7,0.7c-0.2,0.3-0.2,0.6-0.2,1v4.7h-2.5v-8.5h2.1l0.4,1.5h0
	c0.3-0.6,0.7-1,1.2-1.3C187.2,45.5,187.8,45.3,188.5,45.3L188.5,45.3z M192.3,50.5v-1.7h5.6v1.7H192.3z M197.8,54.1l4.3-11.8h3.5
	l4.3,11.8h-3l-0.8-2.3h-4.6l-0.8,2.3H197.8L197.8,54.1z M202.1,49.8h3.5l-1.7-5.2h0L202.1,49.8L202.1,49.8z M214,54.4
	c-0.8,0-1.5-0.1-2.1-0.3c-0.6-0.2-1.1-0.6-1.5-1c-0.4-0.4-0.6-1-0.6-1.6l2.2-0.3c0,0.3,0.1,0.6,0.3,0.8c0.2,0.2,0.4,0.4,0.7,0.5
	c0.3,0.1,0.7,0.2,1,0.2c0.3,0,0.6,0,0.9-0.1c0.3-0.1,0.5-0.2,0.6-0.4c0.1-0.1,0.2-0.3,0.2-0.5c0-0.3-0.1-0.5-0.4-0.6
	c-0.3-0.2-0.7-0.3-1.3-0.4l-1.3-0.2c-0.9-0.1-1.6-0.4-2-0.8c-0.4-0.4-0.6-0.9-0.6-1.6c0-0.6,0.1-1.1,0.5-1.5c0.3-0.4,0.7-0.7,1.3-1
	c0.6-0.2,1.2-0.3,1.9-0.3c0.7,0,1.3,0.1,1.8,0.3c0.5,0.2,1,0.5,1.3,0.9c0.3,0.4,0.5,0.8,0.6,1.3l-2.2,0.3c0-0.4-0.2-0.7-0.5-0.9
	c-0.3-0.2-0.7-0.3-1.1-0.3c-0.3,0-0.5,0-0.7,0.1c-0.2,0.1-0.4,0.2-0.5,0.3c-0.1,0.1-0.2,0.3-0.2,0.5c0,0.2,0.1,0.4,0.3,0.5
	c0.2,0.1,0.6,0.3,1.1,0.3l1.3,0.2c1.1,0.2,1.8,0.5,2.3,0.9c0.5,0.4,0.7,1,0.7,1.7c0,0.6-0.2,1.1-0.5,1.5c-0.3,0.4-0.8,0.8-1.5,1
	C215.5,54.3,214.8,54.4,214,54.4L214,54.4z M220.2,44.4c-0.4,0-0.8-0.1-1.1-0.4c-0.3-0.3-0.4-0.6-0.4-1c0-0.3,0.1-0.5,0.2-0.8
	c0.1-0.2,0.3-0.4,0.5-0.5c0.2-0.1,0.5-0.2,0.8-0.2c0.5,0,0.8,0.1,1.1,0.4c0.3,0.3,0.4,0.6,0.4,1.1c0,0.3-0.1,0.5-0.2,0.8
	s-0.3,0.4-0.5,0.5C220.7,44.4,220.5,44.4,220.2,44.4L220.2,44.4z M218.9,54.1v-8.5h2.5v8.5H218.9z M225.2,54.4
	c-0.6,0-1.1-0.1-1.6-0.3c-0.5-0.2-0.8-0.5-1.1-0.9c-0.3-0.4-0.4-0.8-0.4-1.3c0-0.7,0.3-1.4,1-1.9c0.6-0.5,1.6-0.8,2.8-0.9l1.6-0.2
	c0.2,0,0.4-0.1,0.5-0.2c0.1-0.1,0.2-0.3,0.2-0.4c0-0.2-0.1-0.5-0.2-0.6c-0.1-0.2-0.3-0.3-0.6-0.4c-0.2-0.1-0.5-0.1-0.8-0.1
	c-0.3,0-0.6,0.1-0.9,0.2c-0.3,0.1-0.5,0.3-0.6,0.6c-0.2,0.2-0.3,0.5-0.3,0.8l-2.5-0.4c0.1-0.6,0.3-1.1,0.6-1.6
	c0.4-0.5,0.9-0.8,1.5-1.1c0.6-0.3,1.3-0.4,2.1-0.4c0.8,0,1.5,0.1,2.2,0.4s1.1,0.7,1.4,1.2c0.3,0.5,0.5,1.1,0.5,1.8V52
	c0,0.2,0,0.3,0.1,0.4c0.1,0.1,0.2,0.2,0.3,0.2c0.1,0,0.2,0,0.3-0.1c0.1-0.1,0.2-0.2,0.3-0.3l0.6,1.3c-0.3,0.2-0.6,0.4-1,0.6
	c-0.4,0.1-0.8,0.2-1.2,0.2c-0.5,0-0.9-0.1-1.3-0.4c-0.4-0.3-0.6-0.6-0.6-1l0-0.3h0c-0.2,0.3-0.4,0.6-0.7,0.9
	c-0.3,0.3-0.7,0.5-1.1,0.6S225.7,54.3,225.2,54.4L225.2,54.4z M226.2,52.6c0.4,0,0.7-0.1,1.1-0.3c0.3-0.2,0.6-0.4,0.7-0.7
	s0.3-0.6,0.3-1v-0.3l-1.6,0.2c-0.7,0.1-1.1,0.2-1.4,0.4c-0.3,0.2-0.4,0.4-0.4,0.7s0.1,0.5,0.4,0.7S225.8,52.6,226.2,52.6L226.2,52.6
	z M238.4,45.4c0.6,0,1.1,0.1,1.5,0.3c0.4,0.2,0.7,0.6,1,1c0.2,0.4,0.3,1,0.3,1.6v5.9h-2.5V49c0-0.5-0.1-0.9-0.4-1.1
	c-0.3-0.3-0.6-0.4-1-0.4c-0.4,0-0.7,0.1-1,0.2c-0.3,0.2-0.5,0.4-0.7,0.7c-0.2,0.3-0.2,0.6-0.2,1v4.7h-2.5v-8.5h2.1l0.4,1.5h0
	c0.3-0.6,0.7-1,1.2-1.3C237.2,45.5,237.8,45.4,238.4,45.4L238.4,45.4z M166.7,70.1c-1,0-1.9-0.2-2.7-0.5c-0.8-0.3-1.4-0.8-1.9-1.4
	s-0.8-1.3-0.8-2.1l2.6-0.5c0.1,0.5,0.2,0.9,0.5,1.2c0.3,0.4,0.6,0.6,1,0.8c0.4,0.2,0.9,0.3,1.4,0.3c0.5,0,0.9-0.1,1.2-0.2
	c0.3-0.1,0.6-0.3,0.8-0.6c0.2-0.2,0.3-0.5,0.3-0.8c0-0.4-0.2-0.7-0.5-0.9c-0.3-0.2-0.8-0.4-1.5-0.6l-1.6-0.3
	c-1.3-0.3-2.3-0.7-2.9-1.2c-0.6-0.5-0.9-1.3-0.9-2.2c0-0.8,0.2-1.4,0.6-2c0.4-0.6,1-1,1.7-1.3c0.7-0.3,1.5-0.5,2.4-0.5
	c0.8,0,1.6,0.1,2.2,0.4c0.7,0.3,1.2,0.7,1.7,1.2c0.4,0.5,0.7,1.1,0.8,1.8l-2.5,0.6c0-0.4-0.2-0.7-0.4-1s-0.5-0.5-0.8-0.7
	c-0.3-0.2-0.7-0.2-1-0.2s-0.7,0.1-1,0.2c-0.3,0.1-0.5,0.3-0.7,0.5c-0.2,0.2-0.2,0.5-0.2,0.7c0,0.4,0.1,0.7,0.4,0.9
	c0.3,0.2,0.7,0.4,1.3,0.5l1.7,0.3c1.3,0.2,2.3,0.6,3,1.2c0.6,0.6,1,1.3,1,2.3c0,0.8-0.2,1.5-0.6,2.1c-0.4,0.6-1,1.1-1.8,1.4
	C168.6,70,167.7,70.1,166.7,70.1L166.7,70.1z M176.8,70c-0.9,0-1.7-0.2-2.4-0.6c-0.7-0.4-1.2-0.9-1.6-1.6c-0.4-0.7-0.6-1.5-0.6-2.4
	c0-0.9,0.2-1.7,0.6-2.4c0.4-0.7,0.9-1.2,1.6-1.6c0.7-0.4,1.4-0.6,2.3-0.6c0.7,0,1.4,0.1,1.9,0.4c0.6,0.3,1.1,0.6,1.5,1.1
	c0.4,0.5,0.6,1,0.8,1.7l-2.3,0.6c-0.1-0.5-0.3-1-0.6-1.3c-0.3-0.3-0.7-0.4-1.2-0.4c-0.4,0-0.7,0.1-1,0.3c-0.3,0.2-0.5,0.5-0.7,0.9
	c-0.2,0.4-0.3,0.8-0.3,1.3c0,0.5,0.1,0.9,0.3,1.3c0.2,0.4,0.4,0.7,0.8,0.9c0.3,0.2,0.7,0.3,1.1,0.3c0.4,0,0.7-0.1,1-0.3
	s0.5-0.4,0.7-0.7c0.2-0.3,0.3-0.6,0.3-1l2.4,0.3c-0.1,0.7-0.3,1.4-0.7,1.9c-0.4,0.6-0.9,1-1.6,1.3C178.3,69.9,177.6,70,176.8,70
	L176.8,70z M186.8,61c0.5,0,0.9,0.1,1.3,0.3c0.4,0.2,0.7,0.6,0.9,1c0.2,0.4,0.4,1,0.5,1.6l-2.1,0.6c0-0.5-0.2-0.9-0.4-1.2
	c-0.2-0.3-0.5-0.4-0.9-0.4c-0.3,0-0.6,0.1-0.8,0.3c-0.2,0.2-0.4,0.4-0.5,0.8c-0.1,0.3-0.2,0.7-0.2,1.2v4.6H182v-8.5h2l0.4,1.4h0
	c0.2-0.5,0.6-0.9,1-1.2C185.8,61.1,186.3,61,186.8,61L186.8,61z M194.9,70c-1,0-1.9-0.2-2.6-0.6c-0.8-0.4-1.4-0.9-1.8-1.6
	c-0.4-0.7-0.6-1.5-0.6-2.4c0-0.9,0.2-1.7,0.6-2.4c0.4-0.7,0.9-1.2,1.6-1.6c0.7-0.4,1.5-0.6,2.4-0.6c0.9,0,1.6,0.2,2.3,0.6
	c0.7,0.4,1.2,0.9,1.5,1.5s0.6,1.4,0.6,2.2c0,0.2,0,0.3,0,0.5c0,0.2,0,0.3-0.1,0.5h-6.3c0,0.4,0.2,0.8,0.4,1.1
	c0.2,0.3,0.5,0.5,0.9,0.7c0.4,0.2,0.8,0.3,1.3,0.3c0.5,0,1-0.1,1.5-0.3c0.5-0.2,0.8-0.5,1.1-0.8l1.4,1.1c-0.2,0.4-0.5,0.7-1,1
	c-0.4,0.3-0.9,0.5-1.4,0.7S195.5,70,194.9,70L194.9,70z M196.2,64.7c0-0.4-0.1-0.8-0.3-1.1s-0.4-0.5-0.6-0.7
	c-0.3-0.2-0.6-0.2-0.9-0.2c-0.3,0-0.7,0.1-1,0.3s-0.5,0.4-0.7,0.7c-0.2,0.3-0.3,0.7-0.3,1.1L196.2,64.7L196.2,64.7z M204.5,70
	c-1,0-1.9-0.2-2.6-0.6c-0.8-0.4-1.4-0.9-1.8-1.6c-0.4-0.7-0.6-1.5-0.6-2.4c0-0.9,0.2-1.7,0.6-2.4c0.4-0.7,0.9-1.2,1.6-1.6
	c0.7-0.4,1.5-0.6,2.4-0.6c0.9,0,1.6,0.2,2.3,0.6c0.7,0.4,1.2,0.9,1.5,1.5s0.6,1.4,0.6,2.2c0,0.2,0,0.3,0,0.5c0,0.2,0,0.3-0.1,0.5
	h-6.3c0,0.4,0.2,0.8,0.4,1.1c0.2,0.3,0.5,0.5,0.9,0.7c0.4,0.2,0.8,0.3,1.3,0.3c0.5,0,1-0.1,1.5-0.3c0.5-0.2,0.8-0.5,1.1-0.8l1.4,1.1
	c-0.2,0.4-0.5,0.7-1,1c-0.4,0.3-0.9,0.5-1.4,0.7S205.1,70,204.5,70L204.5,70z M205.9,64.7c0-0.4-0.1-0.8-0.3-1.1s-0.4-0.5-0.6-0.7
	c-0.3-0.2-0.6-0.2-0.9-0.2c-0.3,0-0.7,0.1-1,0.3s-0.5,0.4-0.7,0.7c-0.2,0.3-0.3,0.7-0.3,1.1L205.9,64.7L205.9,64.7z M214.9,61
	c0.6,0,1.1,0.1,1.5,0.3c0.4,0.2,0.7,0.6,1,1c0.2,0.4,0.3,1,0.3,1.6v5.9h-2.5v-5.1c0-0.5-0.1-0.9-0.4-1.1s-0.6-0.4-1-0.4
	c-0.4,0-0.7,0.1-1,0.2c-0.3,0.2-0.5,0.4-0.7,0.7c-0.2,0.3-0.2,0.6-0.2,1v4.7h-2.5v-8.5h2.1l0.4,1.5h0c0.3-0.6,0.7-1,1.2-1.3
	C213.7,61.1,214.3,61,214.9,61L214.9,61z M228.4,70.1c-1.3,0-2.4-0.3-3.4-0.8c-1-0.5-1.7-1.3-2.2-2.2c-0.5-1-0.8-2.1-0.8-3.3
	c0-1.3,0.3-2.4,0.7-3.4c0.5-1,1.2-1.7,2.1-2.2c0.9-0.5,2-0.8,3.2-0.8c1,0,1.8,0.2,2.6,0.5c0.8,0.4,1.4,0.9,1.9,1.5
	c0.5,0.7,0.8,1.4,0.9,2.3l-2.6,0.6c-0.1-0.5-0.3-1-0.5-1.4c-0.3-0.4-0.6-0.7-1-0.9c-0.4-0.2-0.9-0.3-1.4-0.3c-0.7,0-1.2,0.2-1.7,0.5
	c-0.5,0.3-0.9,0.8-1.1,1.4c-0.3,0.6-0.4,1.3-0.4,2.1s0.1,1.5,0.4,2.1c0.3,0.6,0.7,1,1.3,1.4c0.5,0.3,1.2,0.5,1.9,0.5
	c0.6,0,1.1-0.1,1.6-0.4c0.5-0.3,0.9-0.6,1.2-1.1c0.3-0.5,0.5-1,0.6-1.6l2.7,0.4c-0.1,1-0.5,2-1,2.7s-1.3,1.4-2.1,1.8
	C230.5,69.9,229.5,70.1,228.4,70.1L228.4,70.1z M239.7,70.1c-0.9,0-1.8-0.2-2.5-0.6c-0.7-0.4-1.3-0.9-1.7-1.6
	c-0.4-0.7-0.6-1.5-0.6-2.4s0.2-1.7,0.6-2.4c0.4-0.7,0.9-1.2,1.7-1.6c0.7-0.4,1.5-0.6,2.5-0.6s1.8,0.2,2.5,0.6
	c0.7,0.4,1.3,0.9,1.7,1.6c0.4,0.7,0.6,1.5,0.6,2.4s-0.2,1.7-0.6,2.4c-0.4,0.7-0.9,1.2-1.7,1.6C241.5,69.9,240.6,70.1,239.7,70.1z
	 M239.7,67.9c0.5,0,0.8-0.1,1.2-0.3s0.6-0.5,0.8-0.9s0.3-0.8,0.3-1.3s-0.1-1-0.3-1.3c-0.2-0.4-0.4-0.7-0.8-0.9
	c-0.3-0.2-0.7-0.3-1.2-0.3s-0.8,0.1-1.2,0.3c-0.3,0.2-0.6,0.5-0.8,0.9c-0.2,0.4-0.3,0.8-0.3,1.3s0.1,1,0.3,1.3
	c0.2,0.4,0.4,0.7,0.8,0.9C238.8,67.8,239.2,67.9,239.7,67.9z M245.2,69.7V57.4h2.5v12.3H245.2z M248.8,69.7V57.4h2.5v12.3H248.8z
	 M257.2,70.1c-1,0-1.9-0.2-2.6-0.6c-0.8-0.4-1.4-0.9-1.8-1.6c-0.4-0.7-0.6-1.5-0.6-2.4c0-0.9,0.2-1.7,0.6-2.4
	c0.4-0.7,0.9-1.2,1.6-1.6c0.7-0.4,1.5-0.6,2.4-0.6s1.6,0.2,2.3,0.6c0.7,0.4,1.2,0.9,1.5,1.5s0.6,1.4,0.6,2.2c0,0.2,0,0.3,0,0.5
	c0,0.2,0,0.3-0.1,0.5h-6.3c0,0.4,0.2,0.8,0.4,1.1c0.2,0.3,0.5,0.5,0.9,0.7s0.8,0.3,1.3,0.3c0.5,0,1-0.1,1.5-0.3
	c0.5-0.2,0.8-0.5,1.1-0.8l1.4,1.1c-0.2,0.4-0.5,0.7-1,1c-0.4,0.3-0.9,0.5-1.4,0.7C258.4,70,257.8,70.1,257.2,70.1L257.2,70.1z
	 M258.6,64.7c0-0.4-0.1-0.8-0.3-1.1c-0.2-0.3-0.4-0.5-0.6-0.7c-0.3-0.2-0.6-0.2-0.9-0.2s-0.7,0.1-1,0.3c-0.3,0.2-0.5,0.4-0.7,0.7
	c-0.2,0.3-0.3,0.7-0.3,1.1H258.6L258.6,64.7z M266.4,70.1c-0.9,0-1.7-0.2-2.4-0.6c-0.7-0.4-1.2-0.9-1.6-1.6
	c-0.4-0.7-0.6-1.5-0.6-2.4c0-0.9,0.2-1.7,0.6-2.4c0.4-0.7,0.9-1.2,1.6-1.6c0.7-0.4,1.4-0.6,2.3-0.6c0.7,0,1.4,0.1,1.9,0.4
	c0.6,0.3,1.1,0.6,1.5,1.1c0.4,0.5,0.6,1,0.8,1.7l-2.3,0.6c-0.1-0.5-0.3-1-0.6-1.3c-0.3-0.3-0.7-0.4-1.2-0.4c-0.4,0-0.7,0.1-1,0.3
	s-0.5,0.5-0.7,0.9c-0.2,0.4-0.3,0.8-0.3,1.3s0.1,0.9,0.3,1.3c0.2,0.4,0.4,0.7,0.8,0.9c0.3,0.2,0.7,0.3,1.1,0.3c0.4,0,0.7-0.1,1-0.3
	s0.5-0.4,0.7-0.7c0.2-0.3,0.3-0.6,0.3-1l2.4,0.3c-0.1,0.7-0.3,1.4-0.7,1.9c-0.4,0.6-0.9,1-1.6,1.3S267.2,70,266.4,70.1L266.4,70.1z
	 M275.7,70.1c-0.7,0-1.3-0.1-1.8-0.4c-0.5-0.3-0.9-0.6-1.1-1.1c-0.3-0.5-0.4-1-0.4-1.7v-3.8h-1.6v-1.9h1.6v-2.3l2.5-0.6v2.9h3.4v1.9
	H275v3.4c0,0.3,0.1,0.6,0.2,0.8c0.1,0.2,0.3,0.4,0.5,0.5c0.2,0.1,0.4,0.2,0.7,0.2c0.4,0,0.7-0.1,1-0.3c0.3-0.2,0.5-0.5,0.7-0.8
	l0.8,1.6c-0.3,0.5-0.7,0.8-1.3,1.1C276.9,69.9,276.3,70.1,275.7,70.1L275.7,70.1z M280.7,60.1c-0.4,0-0.8-0.1-1.1-0.4
	c-0.3-0.3-0.4-0.6-0.4-1c0-0.3,0.1-0.5,0.2-0.8c0.1-0.2,0.3-0.4,0.5-0.5c0.2-0.1,0.5-0.2,0.8-0.2c0.5,0,0.8,0.1,1.1,0.4
	c0.3,0.3,0.4,0.6,0.4,1.1c0,0.3-0.1,0.5-0.2,0.8s-0.3,0.4-0.5,0.5S281,60.1,280.7,60.1L280.7,60.1z M279.4,69.7v-8.5h2.5v8.5H279.4z
	 M285.8,69.7l-3.2-8.5h2.6l2.2,6.4h0l2.2-6.4h2.6l-3.3,8.5H285.8L285.8,69.7z M297,70.1c-1,0-1.9-0.2-2.6-0.6
	c-0.8-0.4-1.4-0.9-1.8-1.6c-0.4-0.7-0.6-1.5-0.6-2.4s0.2-1.7,0.6-2.4c0.4-0.7,0.9-1.2,1.6-1.6c0.7-0.4,1.5-0.6,2.4-0.6
	c0.9,0,1.6,0.2,2.3,0.6c0.7,0.4,1.2,0.9,1.5,1.5s0.6,1.4,0.6,2.2c0,0.2,0,0.3,0,0.5c0,0.2,0,0.3-0.1,0.5h-6.3c0,0.4,0.2,0.8,0.4,1.1
	c0.2,0.3,0.5,0.5,0.9,0.7s0.8,0.3,1.3,0.3c0.5,0,1-0.1,1.5-0.3c0.5-0.2,0.8-0.5,1.1-0.8l1.4,1.1c-0.2,0.4-0.5,0.7-1,1
	s-0.9,0.5-1.4,0.7S297.6,70.1,297,70.1L297,70.1z M298.3,64.7c0-0.4-0.1-0.8-0.3-1.1c-0.2-0.3-0.4-0.5-0.6-0.7
	c-0.3-0.2-0.6-0.2-0.9-0.2s-0.7,0.1-1,0.3s-0.5,0.4-0.7,0.7c-0.2,0.3-0.3,0.7-0.3,1.1L298.3,64.7L298.3,64.7z"/>
</svg>
